<svg id="Layer_1" data-name="Layer 1" xmlns="http://www.w3.org/2000/svg" viewBox="0 0 44 44"><defs><style>.cls-1{fill:#d0dd53;}.cls-2{fill:#6dcbf7;}.cls-3{fill:#afcd00;}.cls-4{fill:#fff;}.cls-5{fill:#f7a100;}</style></defs><title>fun</title><path class="cls-1" d="M24,38.49a3.83,3.83,0,0,0-1-1.38,10.72,10.72,0,0,1-1.1-.92c-.78-.89-.66-2.14-.61-3.23,0-.84-.11-2,.49-2.69s1.73-.42,2.58-.44c1.44,0,2.87-.18,4.31-.19s2.93,0,4.39.13,2.94.23,4.41.36c.74.07,1.48.11,2.23.11H40v-19A1.72,1.72,0,0,0,38.3,9.57H5.7A1.72,1.72,0,0,0,4,11.28V40.73A1.72,1.72,0,0,0,5.7,42.45H24.63A8.76,8.76,0,0,0,24,38.49Z"/><path class="cls-2" d="M25.11,42.45H38.3A1.72,1.72,0,0,0,40,40.73V30.09H22.17V36l2.94,3.09Z"/><ellipse class="cls-3" cx="27.65" cy="25.28" rx="3.27" ry="0.68"/><rect class="cls-4" x="3.97" y="15.1" width="36.06" height="2.59"/><rect class="cls-4" x="9.8" y="9.55" width="2.52" height="32.92"/><rect class="cls-4" x="3.97" y="28.77" width="36.06" height="2.59"/><ellipse class="cls-4" cx="10.94" cy="30.08" rx="4.19" ry="4.16" transform="translate(-19.7 39.33) rotate(-86.8)"/><ellipse class="cls-1" cx="10.94" cy="30.08" rx="2.06" ry="2.05" transform="translate(-19.7 39.33) rotate(-86.8)"/><rect class="cls-4" x="32.21" y="9.57" width="2.44" height="21.16"/><rect class="cls-4" x="20.11" y="15.96" width="2.74" height="15.39"/><path class="cls-4" d="M22.86,33.57V29.19H20.1V34a2.78,2.78,0,0,0,.54,1.64l2.16,2.9a1.87,1.87,0,0,1,.36,1.09v2.9h2.76v-3.3a2.71,2.71,0,0,0-.52-1.6l-2.19-3A1.87,1.87,0,0,1,22.86,33.57Z"/><rect class="cls-5" x="17.73" y="1" width="19.73" height="18.34" rx="1.93"/><path class="cls-5" d="M24.69,19.22,27.07,23a.65.65,0,0,0,1.11,0l2.31-3.77Z"/><path class="cls-4" d="M31.89,16.26H23.1a.56.56,0,0,1-.57-.57V10.53H21.46a.57.57,0,0,1-.52-.34.59.59,0,0,1,.11-.62L27.1,3.22A.5.5,0,0,1,27.51,3a.55.55,0,0,1,.4.18l6.21,6.35a.55.55,0,0,1,.12.61.57.57,0,0,1-.52.35H32.46v5.16A.57.57,0,0,1,31.89,16.26Zm-8.22-1.14h7.65V9.39h1l-4.86-5-4.72,5h.88Z"/></svg>