<svg id="Layer_1" data-name="Layer 1" xmlns="http://www.w3.org/2000/svg" viewBox="0 0 44 44"><defs><style>.cls-1{fill:#fdcc2e;}.cls-2{fill:#f97d00;}.cls-3{fill:#53241b;}.cls-4{fill:#694039;}.cls-5{fill:#fff;}.cls-6{fill:#f7a100;}.cls-7{fill:#e6f2f7;}.cls-8{fill:#00a8e8;}</style></defs><title>fun</title><polygon class="cls-1" points="24.19 0.96 7.49 19.92 7.49 43.82 10.63 43.82 10.68 43.42 21.57 43.42 21.61 43.82 40.89 43.82 40.89 19.92 24.19 0.96"/><path class="cls-2" d="M41.73,22,24.19,2.11,6.65,22a.78.78,0,0,1-1.08.07h0A.78.78,0,0,1,5.5,21L23.53.56a.88.88,0,0,1,1.32,0L42.87,21a.77.77,0,0,1-.06,1.08h0A.78.78,0,0,1,41.73,22Z"/><rect class="cls-3" x="20.76" y="14.98" width="7.66" height="4.99" transform="translate(42.06 -7.11) rotate(90)"/><polygon class="cls-4" points="24.19 21.28 27.05 18.81 27.05 13.65 26.59 13.65 22.08 18.04 22.08 21.28 24.19 21.28"/><path class="cls-5" d="M21.34,13.57v7.81a.72.72,0,0,0,.72.72h5.09a.72.72,0,0,0,.72-.72V13.57a.71.71,0,0,0-.72-.71H22.06A.71.71,0,0,0,21.34,13.57Zm5.74,7.73h-5V13.65h5Z"/><rect class="cls-3" x="26.29" y="26.97" width="7.91" height="10.16" transform="translate(62.29 1.81) rotate(90)"/><path class="cls-4" d="M25.14,36H30V30.43l-4.81,4.81Zm7.22-7.86-1.58,1.58V36h2l2.51-2.5V28.11Z"/><path class="cls-5" d="M24.39,28v8.15a.7.7,0,0,0,.7.7H35.44a.7.7,0,0,0,.7-.7V28a.69.69,0,0,0-.7-.69H25.09A.69.69,0,0,0,24.39,28Zm10.93,8H25.16V28.1H35.32Z"/><rect class="cls-5" x="29.94" y="27.66" width="0.86" height="8.69"/><path class="cls-5" d="M12.48,27.27h7.36a.7.7,0,0,1,.7.7V42.36a0,0,0,0,1,0,0H11.79a0,0,0,0,1,0,0V28A.7.7,0,0,1,12.48,27.27Z"/><rect class="cls-6" x="12.54" y="28.09" width="7.23" height="14.29"/><polygon class="cls-7" points="11.81 33.29 12.54 31.92 12.54 28.09 14.58 28.09 15.02 27.26 11.81 27.26 11.81 33.29"/><circle class="cls-1" cx="18.45" cy="35.86" r="0.57"/><path class="cls-8" d="M20.72,16.92,19.21,9.64a1.59,1.59,0,0,0-1.74-1.25l-7.38.88A1.6,1.6,0,0,0,9,9.92L.47,21.66A1.63,1.63,0,0,0,.8,23.91L9.69,30.3a1.63,1.63,0,0,0,2.24-.4l8.53-11.74A1.57,1.57,0,0,0,20.72,16.92Z"/><path class="cls-5" d="M9.4,23.87,9,24.48,8,23.82l.32-.44A4.28,4.28,0,0,1,8,23.12a4,4,0,0,1-.41-.31l-.32.45-.91-.65L6.8,22a5,5,0,0,1,.08-6.13,4.57,4.57,0,0,1,4.4-1.95l-.33,2a2.7,2.7,0,0,0-2.54,1.05,3,3,0,0,0-.27,3.17l2.13-2.95.91.65L8.85,21a3.12,3.12,0,0,0,.4.32,2.74,2.74,0,0,0,.39.24L12,18.37l.92.66-2.14,3a3,3,0,0,0,3-1.26A2.66,2.66,0,0,0,13.91,18l1.77-1a4.55,4.55,0,0,1-.44,4.79A5.12,5.12,0,0,1,9.4,23.87Z"/><path class="cls-5" d="M11.09,42.14H21.16a.51.51,0,0,1,.51.51v1.19a0,0,0,0,1,0,0H10.58a0,0,0,0,1,0,0V42.65A.51.51,0,0,1,11.09,42.14Z"/></svg>